<svg width="98" height="78" viewBox="0 0 98 78" fill="none" xmlns="http://www.w3.org/2000/svg">
<path d="M0 46.2287H0.863456V36.4658H0V46.2287Z" fill="#E7A94D"/>
<path d="M2.28485 46.2287H3.07867V37.9023L5.85009 46.2287H6.76925V36.4658H5.9615V44.0111L3.42684 36.4658H2.28485V46.2287Z" fill="#E7A94D"/>
<path d="M10.1932 46.3682C11.5719 46.3682 12.3379 45.5035 12.3379 44.0669V42.7977H11.5162V44.1227C11.5162 45.0711 11.0009 45.5732 10.2071 45.5732C9.42719 45.5732 8.93975 45.0711 8.93975 44.1227V38.5718C8.93975 37.6234 9.42719 37.1074 10.2071 37.1074C11.0009 37.1074 11.5162 37.6234 11.5162 38.5718V39.6178H12.3379V38.6136C12.3379 37.1911 11.5719 36.3263 10.1932 36.3263C8.84227 36.3263 8.0763 37.1911 8.0763 38.6136V44.0669C8.0763 45.5035 8.84227 46.3682 10.1932 46.3682Z" fill="#E7A94D"/>
<path d="M13.5051 46.2287H14.3686V41.7238H15.427C16.4576 41.7238 16.8754 42.1143 16.8754 43.2441V45.0432C16.8754 45.6429 16.9311 45.9498 17.0007 46.2287H17.8781C17.7667 45.894 17.7388 45.4756 17.7388 45.0572V43.2859C17.7388 42.1283 17.4046 41.4728 16.5551 41.2775V41.2496C17.3628 41.0265 17.7388 40.371 17.7388 39.2831V38.6834C17.7388 37.1492 17.0982 36.4658 15.5802 36.4658H13.5051V46.2287ZM14.3686 40.9149V37.2468H15.5523C16.4993 37.2468 16.8754 37.6931 16.8754 38.7531V39.4365C16.8754 40.4965 16.4019 40.9149 15.4131 40.9149H14.3686Z" fill="#E7A94D"/>
<path d="M21.1563 46.3682C22.5629 46.3682 23.3428 45.5314 23.3428 43.9832V38.7113C23.3428 37.1632 22.5629 36.3263 21.1563 36.3263C19.7497 36.3263 18.9698 37.1632 18.9698 38.7113V43.9832C18.9698 45.5314 19.7497 46.3682 21.1563 46.3682ZM21.1563 45.5732C20.3068 45.5732 19.8333 45.0851 19.8333 44.039V38.6555C19.8333 37.6095 20.3068 37.1074 21.1563 37.1074C22.0058 37.1074 22.4794 37.6095 22.4794 38.6555V44.039C22.4794 45.0851 22.0058 45.5732 21.1563 45.5732Z" fill="#E7A94D"/>
<path d="M25.9451 46.2287H26.8086V41.8772L28.828 36.4658H27.9784L26.4047 40.7475L24.8449 36.4658H23.9258L25.9451 41.8772V46.2287Z" fill="#E7A94D"/>
<path d="M32.7276 46.2287H33.6049L31.6691 36.4658H30.4993L28.5913 46.2287H29.413L29.8169 44.0669H32.3098L32.7276 46.2287ZM29.9701 43.2998L31.0564 37.5258L32.1705 43.2998H29.9701Z" fill="#E7A94D"/>
<path d="M34.5992 46.2287H36.8275C38.3315 46.2287 39.014 45.4756 39.014 43.9693V43.1464C39.014 42.0167 38.6519 41.3333 37.7466 41.0823V41.0544C38.5126 40.7894 38.8608 40.1618 38.8608 39.0878V38.6834C38.8608 37.1492 38.2341 36.4658 36.7021 36.4658H34.5992V46.2287ZM35.4626 40.7475V37.2468H36.6743C37.6352 37.2468 37.9973 37.6931 37.9973 38.7531V39.2552C37.9973 40.3291 37.5238 40.7475 36.535 40.7475H35.4626ZM35.4626 45.4337V41.5286H36.5768C37.7188 41.5286 38.1505 41.9609 38.1505 43.1185V43.9553C38.1505 45.0014 37.7605 45.4337 36.8275 45.4337H35.4626Z" fill="#E7A94D"/>
<path d="M40.1889 46.2287H43.963V45.4337H41.0524V36.4658H40.1889V46.2287Z" fill="#E7A94D"/>
<path d="M44.9354 46.2287H48.8349V45.4337H45.7989V41.5286H48.2918V40.7475H45.7989V37.2468H48.8349V36.4658H44.9354V46.2287Z" fill="#E7A94D"/>
<path d="M53.9955 46.3682C55.3882 46.3682 56.1681 45.5174 56.1681 44.039C56.1681 42.8535 55.7363 42.1004 54.3576 40.9846C53.146 40.0083 52.7282 39.4086 52.7282 38.5439C52.7282 37.6234 53.2156 37.1074 54.0094 37.1074C54.8172 37.1074 55.2907 37.6095 55.2907 38.5858V39.0321H56.1124V38.6415C56.1124 37.1771 55.3743 36.3263 54.0094 36.3263C52.6446 36.3263 51.8647 37.1771 51.8647 38.5997C51.8647 39.7155 52.3243 40.4825 53.703 41.5844C54.9147 42.5467 55.3046 43.1604 55.3046 44.0948C55.3046 45.0851 54.8033 45.5732 53.9955 45.5732C53.1878 45.5732 52.6864 45.0851 52.6864 44.1088V43.509H51.8647V44.053C51.8647 45.5174 52.6168 46.3682 53.9955 46.3682Z" fill="#E7A94D"/>
<path d="M60.921 46.2287H61.7984L59.8626 36.4658H58.6927L56.7848 46.2287H57.6064L58.0103 44.0669H60.5032L60.921 46.2287ZM58.1635 43.2998L59.2498 37.5258L60.3639 43.2998H58.1635Z" fill="#E7A94D"/>
<path d="M63.7242 46.2287H64.894L66.7324 36.4658H65.9246L64.337 45.0572L62.7215 36.4658H61.8441L63.7242 46.2287Z" fill="#E7A94D"/>
<path d="M69.7366 46.3682C71.1432 46.3682 71.9231 45.5314 71.9231 43.9832V38.7113C71.9231 37.1632 71.1432 36.3263 69.7366 36.3263C68.33 36.3263 67.5501 37.1632 67.5501 38.7113V43.9832C67.5501 45.5314 68.33 46.3682 69.7366 46.3682ZM69.7366 45.5732C68.8871 45.5732 68.4136 45.0851 68.4136 44.039V38.6555C68.4136 37.6095 68.8871 37.1074 69.7366 37.1074C70.5861 37.1074 71.0597 37.6095 71.0597 38.6555V44.039C71.0597 45.0851 70.5861 45.5732 69.7366 45.5732Z" fill="#E7A94D"/>
<path d="M73.2377 46.2287H74.0315V37.9023L76.8029 46.2287H77.7221V36.4658H76.9143V44.0111L74.3797 36.4658H73.2377V46.2287Z" fill="#E7A94D"/>
<path d="M79.1266 46.2287H83.0261V45.4337H79.99V41.5286H82.4829V40.7475H79.99V37.2468H83.0261V36.4658H79.1266V46.2287Z" fill="#E7A94D"/>
<path d="M85.3869 46.2287H86.2503V37.2468H88.0469V36.4658H83.6042V37.2468H85.3869V46.2287Z" fill="#E7A94D"/>
<path d="M90.4598 46.2287H91.3232V37.2468H93.1198V36.4658H88.6772V37.2468H90.4598V46.2287Z" fill="#E7A94D"/>
<path d="M94.1005 46.2287H98V45.4337H94.964V41.5286H97.4569V40.7475H94.964V37.2468H98V36.4658H94.1005V46.2287Z" fill="#E7A94D"/>
<path fill-rule="evenodd" clip-rule="evenodd" d="M93.9614 56.1339C93.9614 69.7322 81.3605 78 68.5423 78C57.1364 78 47.5771 73.9749 42.4715 70.2761L41.9386 55.4393H43.3125C47.6038 66.6421 55.8373 76.0418 70.7149 76.0418C79.4052 76.0418 86.9005 70.3849 86.9005 61.5732C86.9005 59.2823 86.308 57.2519 85.2873 55.4393H93.9492C93.9573 55.6682 93.9614 55.8997 93.9614 56.1339ZM45.857 29.9861C44.2902 27.4695 43.4492 24.4833 43.4492 20.7782C43.4492 8.05021 53.9861 0 69.9545 0C79.8397 0 86.9005 2.71966 91.1371 5.00419L91.5716 17.6234L90.4853 17.9498C86.466 8.48536 78.862 1.74058 66.4784 1.74058C57.6795 1.74058 50.1841 6.85355 50.1841 16.1004C50.1841 22.8073 54.9972 26.8936 60.9149 29.9861H45.857ZM34.7945 29.9861V14.5774C34.7945 5.6569 35.7722 3.15481 39.1397 2.17573V0.761503H21.5419V2.17573C24.8007 3.15481 25.887 5.6569 25.887 14.5774V29.9861H34.7945ZM25.887 55.4393V63.0962C25.887 72.0167 24.8007 74.5188 21.5419 75.4979V76.9121H39.1397V75.4979C35.7722 74.5188 34.7945 72.0167 34.7945 63.0962V55.4393H25.887Z" fill="white"/>
</svg>
