<svg width="138" height="33" viewBox="0 0 138 33" fill="none" xmlns="http://www.w3.org/2000/svg">
<path d="M6.84 25.576C5.496 25.576 4.312 25.3413 3.288 24.872C2.264 24.4027 1.47467 23.752 0.92 22.92C0.365333 22.0667 0.0880001 21.0853 0.0880001 19.976C0.0880001 19.0373 0.28 18.184 0.664 17.416C1.06933 16.648 1.60267 16.04 2.264 15.592C2.94667 15.144 3.69333 14.92 4.504 14.92C5.25067 14.92 5.88 15.112 6.392 15.496C6.904 15.8587 7.224 16.3707 7.352 17.032C6.24267 17.032 5.35733 17.3307 4.696 17.928C4.03467 18.504 3.704 19.2933 3.704 20.296C3.704 21.2133 3.98133 21.9493 4.536 22.504C5.09067 23.0587 5.82667 23.336 6.744 23.336C7.87467 23.336 8.80267 22.9627 9.528 22.216C10.2747 21.448 10.648 20.488 10.648 19.336C10.648 18.3333 10.3707 17.384 9.816 16.488C9.26133 15.592 8.42933 14.504 7.32 13.224C6.168 11.9013 5.29333 10.7707 4.696 9.832C4.12 8.872 3.832 7.82667 3.832 6.696C3.832 5.58667 4.14133 4.59467 4.76 3.72C5.37867 2.824 6.232 2.12 7.32 1.608C8.408 1.096 9.63467 0.839998 11 0.839998C12.728 0.839998 14.104 1.24533 15.128 2.056C16.1733 2.86667 16.696 3.95467 16.696 5.32C16.696 6.216 16.472 6.94133 16.024 7.496C15.576 8.05067 14.9893 8.328 14.264 8.328C13.4533 8.328 12.8027 7.99733 12.312 7.336C12.7173 7.03733 13.0373 6.64267 13.272 6.152C13.5067 5.66133 13.624 5.14933 13.624 4.616C13.624 3.93333 13.4213 3.38933 13.016 2.984C12.6107 2.57867 12.056 2.376 11.352 2.376C10.4987 2.376 9.79467 2.68533 9.24 3.304C8.70667 3.90133 8.44 4.66933 8.44 5.608C8.44 6.46133 8.68533 7.26133 9.176 8.008C9.66667 8.73333 10.4347 9.672 11.48 10.824C12.3333 11.7413 13.016 12.5307 13.528 13.192C14.0613 13.8533 14.5093 14.6213 14.872 15.496C15.256 16.3493 15.448 17.2773 15.448 18.28C15.448 19.6453 15.064 20.8827 14.296 21.992C13.5493 23.1013 12.5147 23.976 11.192 24.616C9.89067 25.256 8.44 25.576 6.84 25.576ZM21.09 25.192C19.874 25.192 18.8607 24.776 18.05 23.944C17.2393 23.112 16.834 21.8107 16.834 20.04C16.834 18.4613 17.1433 16.808 17.762 15.08C18.402 13.3307 19.3407 11.8587 20.578 10.664C21.8367 9.448 23.33 8.84 25.058 8.84C25.9327 8.84 26.5833 8.98933 27.01 9.288C27.4367 9.58667 27.65 9.98133 27.65 10.472V10.696L28.002 9H32.61L30.306 19.88C30.2207 20.2 30.178 20.5413 30.178 20.904C30.178 21.8213 30.6153 22.28 31.49 22.28C32.0873 22.28 32.5993 22.0027 33.026 21.448C33.474 20.8933 33.826 20.168 34.082 19.272H35.426C34.6367 21.576 33.6553 23.144 32.482 23.976C31.33 24.7867 30.1673 25.192 28.994 25.192C28.098 25.192 27.3727 24.9467 26.818 24.456C26.2847 23.944 25.9647 23.208 25.858 22.248C25.2393 23.1227 24.546 23.8373 23.778 24.392C23.0313 24.9253 22.1353 25.192 21.09 25.192ZM23.17 22.088C23.7033 22.088 24.226 21.8427 24.738 21.352C25.2713 20.84 25.634 20.1467 25.826 19.272L27.362 12.04C27.362 11.7627 27.2553 11.496 27.042 11.24C26.8287 10.9627 26.498 10.824 26.05 10.824C25.1967 10.824 24.4287 11.3253 23.746 12.328C23.0633 13.3093 22.53 14.504 22.146 15.912C21.762 17.2987 21.57 18.5253 21.57 19.592C21.57 20.6587 21.7193 21.3413 22.018 21.64C22.338 21.9387 22.722 22.088 23.17 22.088ZM37.7418 25.192C36.5044 25.192 35.5338 24.8827 34.8298 24.264C34.1471 23.624 33.8057 22.6747 33.8057 21.416C33.8057 20.904 33.8591 20.392 33.9657 19.88L36.2698 9H40.8778L38.5738 19.88C38.4671 20.4133 38.4138 20.7973 38.4138 21.032C38.4138 21.736 38.7764 22.088 39.5018 22.088C40.4831 22.088 41.3898 21.4693 42.2218 20.232C43.0751 18.9947 43.7578 17.5227 44.2698 15.816C44.7818 14.1093 45.0378 12.6373 45.0378 11.4C44.9951 11.5067 44.8564 11.592 44.6218 11.656C44.3871 11.6987 44.1844 11.72 44.0138 11.72C43.6511 11.72 43.3631 11.5493 43.1498 11.208C42.9578 10.8667 42.8618 10.4933 42.8618 10.088C42.8618 9.576 43.0218 9.16 43.3418 8.84C43.6831 8.52 44.1844 8.36 44.8458 8.36C45.5498 8.36 46.0618 8.62667 46.3818 9.16C46.7018 9.672 46.8618 10.3333 46.8618 11.144C46.8618 13.064 46.5311 15.1227 45.8698 17.32C45.2084 19.496 44.1951 21.352 42.8298 22.888C41.4644 24.424 39.7684 25.192 37.7418 25.192ZM52.0158 25.128C50.4371 25.128 49.1891 24.7227 48.2718 23.912C47.3544 23.1013 46.8957 21.8213 46.8957 20.072C46.8957 18.6213 47.1944 17.0107 47.7918 15.24C48.3891 13.4693 49.3491 11.944 50.6718 10.664C51.9944 9.36267 53.6584 8.712 55.6638 8.712C58.3944 8.712 59.7598 10.4187 59.7598 13.832V13.864C59.8238 13.8853 59.9411 13.896 60.1118 13.896C60.8158 13.896 61.6264 13.7147 62.5438 13.352C63.4611 12.968 64.2931 12.5093 65.0398 11.976L65.3278 12.84C64.7091 13.5013 63.8984 14.0667 62.8958 14.536C61.9144 14.984 60.8371 15.304 59.6638 15.496C59.4931 17.4373 59.0558 19.1333 58.3518 20.584C57.6478 22.0347 56.7411 23.1547 55.6318 23.944C54.5224 24.7333 53.3171 25.128 52.0158 25.128ZM53.2958 22.248C53.8078 22.248 54.3198 21.96 54.8318 21.384C55.3438 20.7867 55.7918 19.9867 56.1758 18.984C56.5598 17.96 56.8371 16.8293 57.0078 15.592C56.4318 15.464 56.1438 15.016 56.1438 14.248C56.1438 13.3733 56.4744 12.7973 57.1358 12.52C57.0931 11.816 56.9864 11.336 56.8158 11.08C56.6451 10.8027 56.3464 10.664 55.9198 10.664C55.2158 10.664 54.5331 11.176 53.8718 12.2C53.2104 13.224 52.6771 14.4507 52.2718 15.88C51.8664 17.3093 51.6638 18.568 51.6638 19.656C51.6638 20.68 51.7811 21.3733 52.0158 21.736C52.2504 22.0773 52.6771 22.248 53.2958 22.248ZM72.4143 25.192C71.2836 25.192 70.4623 24.8507 69.9503 24.168C69.4383 23.4853 69.1823 22.6213 69.1823 21.576C69.1823 21.128 69.2356 20.6267 69.3423 20.072C69.4489 19.496 69.5556 18.9413 69.6623 18.408C69.7903 17.8747 69.8756 17.5333 69.9183 17.384C70.0889 16.6373 70.2489 15.9013 70.3983 15.176C70.5476 14.4507 70.6223 13.864 70.6223 13.416C70.6223 12.328 70.2383 11.784 69.4703 11.784C68.9156 11.784 68.4249 12.0613 67.9983 12.616C67.5716 13.1493 67.2303 13.8533 66.9743 14.728L64.7983 25H60.1902L63.5823 9H68.1903L67.8383 10.664C68.9049 9.46933 70.1529 8.872 71.5823 8.872C72.6703 8.872 73.5343 9.17067 74.1743 9.768C74.8143 10.3653 75.1343 11.272 75.1343 12.488C75.1343 13.1067 75.0596 13.8 74.9103 14.568C74.7609 15.3147 74.5476 16.232 74.2703 17.32C74.0996 17.9813 73.9396 18.632 73.7903 19.272C73.6623 19.8907 73.5983 20.3813 73.5983 20.744C73.5983 21.1707 73.6943 21.5013 73.8863 21.736C74.0783 21.9707 74.4089 22.088 74.8783 22.088C75.3903 22.088 75.7423 22.024 75.9343 21.896C75.8063 22.984 75.4116 23.8053 74.7503 24.36C74.1103 24.9147 73.3316 25.192 72.4143 25.192ZM80.219 33C79.0457 33 78.0963 32.6693 77.371 32.008C76.6243 31.368 76.251 30.504 76.251 29.416C76.251 28.52 76.507 27.784 77.019 27.208C77.531 26.632 78.1603 26.1733 78.907 25.832C79.6537 25.4907 80.6137 25.128 81.787 24.744L85.339 7.912C85.915 5.26667 86.875 3.464 88.219 2.504C89.563 1.52267 91.099 1.032 92.827 1.032C94.427 1.032 95.7817 1.29867 96.891 1.832C98.0003 2.36533 98.555 3.32533 98.555 4.712C98.555 5.608 98.3097 6.26933 97.819 6.696C97.3497 7.10133 96.7523 7.304 96.027 7.304C95.4723 7.304 95.0137 7.176 94.651 6.92C94.2883 6.64267 94.107 6.19467 94.107 5.576C94.107 5.17067 94.203 4.808 94.395 4.488C94.6083 4.168 94.875 4.008 95.195 4.008C95.3443 4.008 95.4297 4.01867 95.451 4.04C95.4297 3.61333 95.259 3.29333 94.939 3.08C94.6403 2.86666 94.2243 2.76 93.691 2.76C92.7523 2.76 91.995 3.10133 91.419 3.784C90.8643 4.46667 90.491 5.33067 90.299 6.376L89.755 9H92.315L92.059 10.28H89.499L85.851 27.56C85.4243 29.5653 84.6883 30.9733 83.643 31.784C82.5977 32.5947 81.4563 33 80.219 33ZM94.587 25.192C93.563 25.192 92.731 24.872 92.091 24.232C91.4723 23.592 91.163 22.632 91.163 21.352C91.163 20.8187 91.2483 20.1253 91.419 19.272L93.595 9H98.203L95.899 19.88C95.8137 20.2 95.771 20.5413 95.771 20.904C95.771 21.3307 95.867 21.64 96.059 21.832C96.2723 22.0027 96.6137 22.088 97.083 22.088C97.7017 22.088 98.2777 21.832 98.811 21.32C99.3443 20.7867 99.7283 20.104 99.963 19.272H101.307C100.518 21.576 99.5043 23.144 98.267 23.976C97.0297 24.7867 95.803 25.192 94.587 25.192ZM79.323 30.152C79.6857 30.152 80.0483 29.9493 80.411 29.544C80.7523 29.1387 81.0083 28.5093 81.179 27.656L81.563 25.8C80.475 26.1413 79.611 26.568 78.971 27.08C78.331 27.6133 78.011 28.2107 78.011 28.872C78.011 29.3413 78.1603 29.672 78.459 29.864C78.7577 30.056 79.0457 30.152 79.323 30.152ZM103.137 25.192C102.113 25.192 101.281 24.872 100.641 24.232C100.022 23.592 99.7127 22.632 99.7127 21.352C99.7127 20.8187 99.7981 20.1253 99.9688 19.272L103.393 3.24L108.129 2.6L104.449 19.88C104.363 20.2 104.321 20.5413 104.321 20.904C104.321 21.3307 104.417 21.64 104.609 21.832C104.822 22.0027 105.163 22.088 105.633 22.088C106.251 22.088 106.827 21.832 107.361 21.32C107.894 20.7867 108.278 20.104 108.513 19.272H109.857C109.067 21.576 108.054 23.144 106.817 23.976C105.579 24.7867 104.353 25.192 103.137 25.192ZM113.172 25.128C111.593 25.128 110.345 24.7227 109.428 23.912C108.511 23.1013 108.052 21.8213 108.052 20.072C108.052 18.6213 108.351 17.0107 108.948 15.24C109.545 13.4693 110.505 11.944 111.828 10.664C113.151 9.36267 114.815 8.712 116.82 8.712C119.551 8.712 120.916 10.4187 120.916 13.832V13.864C120.98 13.8853 121.097 13.896 121.268 13.896C121.972 13.896 122.783 13.7147 123.7 13.352C124.617 12.968 125.449 12.5093 126.196 11.976L126.484 12.84C125.865 13.5013 125.055 14.0667 124.052 14.536C123.071 14.984 121.993 15.304 120.82 15.496C120.649 17.4373 120.212 19.1333 119.508 20.584C118.804 22.0347 117.897 23.1547 116.788 23.944C115.679 24.7333 114.473 25.128 113.172 25.128ZM114.452 22.248C114.964 22.248 115.476 21.96 115.988 21.384C116.5 20.7867 116.948 19.9867 117.332 18.984C117.716 17.96 117.993 16.8293 118.164 15.592C117.588 15.464 117.3 15.016 117.3 14.248C117.3 13.3733 117.631 12.7973 118.292 12.52C118.249 11.816 118.143 11.336 117.972 11.08C117.801 10.8027 117.503 10.664 117.076 10.664C116.372 10.664 115.689 11.176 115.028 12.2C114.367 13.224 113.833 14.4507 113.428 15.88C113.023 17.3093 112.82 18.568 112.82 19.656C112.82 20.68 112.937 21.3733 113.172 21.736C113.407 22.0773 113.833 22.248 114.452 22.248ZM125.731 25.192C124.707 25.192 123.875 24.872 123.235 24.232C122.616 23.592 122.306 22.632 122.306 21.352C122.306 20.8187 122.392 20.1253 122.562 19.272L124.739 9H129.347L127.043 19.88C126.979 20.136 126.947 20.4027 126.947 20.68C126.947 21.6187 127.267 22.088 127.907 22.088C128.504 22.088 129.016 21.8427 129.443 21.352C129.869 20.84 130.211 20.1467 130.467 19.272L132.643 9H137.251L134.947 19.88C134.861 20.2 134.819 20.5413 134.819 20.904C134.819 21.3307 134.915 21.64 135.107 21.832C135.32 22.0027 135.661 22.088 136.131 22.088C136.472 22.088 136.717 22.0667 136.867 22.024C137.037 21.96 137.144 21.9173 137.187 21.896C137.101 22.984 136.728 23.8053 136.067 24.36C135.405 24.9147 134.595 25.192 133.635 25.192C132.739 25.192 132.013 24.9253 131.459 24.392C130.925 23.8587 130.605 23.112 130.499 22.152C129.773 23.3253 129.005 24.1253 128.195 24.552C127.405 24.9787 126.584 25.192 125.731 25.192Z" fill="white"/>
</svg>
