<svg width="306" height="252" viewBox="0 0 306 252" fill="none" xmlns="http://www.w3.org/2000/svg">
<g clip-path="url(#clip0_7_10)">
<path d="M12.04 145.584H14.52V117.584H12.04V145.584ZM18.6025 145.584H20.8825V121.704L28.8425 145.584H31.4825V117.584H29.1625V139.224L21.8825 117.584H18.6025V145.584ZM41.3166 145.984C45.2766 145.984 47.4766 143.504 47.4766 139.384V135.744H45.1166V139.544C45.1166 142.264 43.6366 143.704 41.3566 143.704C39.1166 143.704 37.7166 142.264 37.7166 139.544V123.624C37.7166 120.904 39.1166 119.424 41.3566 119.424C43.6366 119.424 45.1166 120.904 45.1166 123.624V126.624H47.4766V123.744C47.4766 119.664 45.2766 117.184 41.3166 117.184C37.4366 117.184 35.2366 119.664 35.2366 123.744V139.384C35.2366 143.504 37.4366 145.984 41.3166 145.984ZM50.8291 145.584H53.3091V132.664H56.3491C59.3091 132.664 60.5091 133.784 60.5091 137.024V142.184C60.5091 143.904 60.6691 144.784 60.8691 145.584H63.3891C63.0691 144.624 62.9891 143.424 62.9891 142.224V137.144C62.9891 133.824 62.0291 131.944 59.5891 131.384V131.304C61.9091 130.664 62.9891 128.784 62.9891 125.664V123.944C62.9891 119.544 61.1491 117.584 56.7891 117.584H50.8291V145.584ZM53.3091 130.344V119.824H56.7091C59.4291 119.824 60.5091 121.104 60.5091 124.144V126.104C60.5091 129.144 59.1491 130.344 56.3091 130.344H53.3091ZM72.8047 145.984C76.8447 145.984 79.0847 143.584 79.0847 139.144V124.024C79.0847 119.584 76.8447 117.184 72.8047 117.184C68.7647 117.184 66.5247 119.584 66.5247 124.024V139.144C66.5247 143.584 68.7647 145.984 72.8047 145.984ZM72.8047 143.704C70.3647 143.704 69.0047 142.304 69.0047 139.304V123.864C69.0047 120.864 70.3647 119.424 72.8047 119.424C75.2447 119.424 76.6047 120.864 76.6047 123.864V139.304C76.6047 142.304 75.2447 143.704 72.8047 143.704ZM86.5591 145.584H89.0391V133.104L94.8391 117.584H92.3991L87.8791 129.864L83.3991 117.584H80.7591L86.5591 133.104V145.584ZM106.039 145.584H108.559L102.999 117.584H99.6394L94.1594 145.584H96.5194L97.6794 139.384H104.839L106.039 145.584ZM98.1194 137.184L101.239 120.624L104.439 137.184H98.1194ZM111.415 145.584H117.815C122.135 145.584 124.095 143.424 124.095 139.104V136.744C124.095 133.504 123.055 131.544 120.455 130.824V130.744C122.655 129.984 123.655 128.184 123.655 125.104V123.944C123.655 119.544 121.855 117.584 117.455 117.584H111.415V145.584ZM113.895 129.864V119.824H117.375C120.135 119.824 121.175 121.104 121.175 124.144V125.584C121.175 128.664 119.815 129.864 116.975 129.864H113.895ZM113.895 143.304V132.104H117.095C120.375 132.104 121.615 133.344 121.615 136.664V139.064C121.615 142.064 120.495 143.304 117.815 143.304H113.895ZM127.47 145.584H138.31V143.304H129.95V117.584H127.47V145.584ZM141.103 145.584H152.303V143.304H143.583V132.104H150.743V129.864H143.583V119.824H152.303V117.584H141.103V145.584ZM167.125 145.984C171.125 145.984 173.365 143.544 173.365 139.304C173.365 135.904 172.125 133.744 168.165 130.544C164.685 127.744 163.485 126.024 163.485 123.544C163.485 120.904 164.885 119.424 167.165 119.424C169.485 119.424 170.845 120.864 170.845 123.664V124.944H173.205V123.824C173.205 119.624 171.085 117.184 167.165 117.184C163.245 117.184 161.005 119.624 161.005 123.704C161.005 126.904 162.325 129.104 166.285 132.264C169.765 135.024 170.885 136.784 170.885 139.464C170.885 142.304 169.445 143.704 167.125 143.704C164.805 143.704 163.365 142.304 163.365 139.504V137.784H161.005V139.344C161.005 143.544 163.165 145.984 167.125 145.984ZM187.016 145.584H189.536L183.976 117.584H180.616L175.136 145.584H177.496L178.656 139.384H185.816L187.016 145.584ZM179.096 137.184L182.216 120.624L185.416 137.184H179.096ZM195.067 145.584H198.427L203.707 117.584H201.387L196.827 142.224L192.187 117.584H189.667L195.067 145.584ZM212.336 145.984C216.376 145.984 218.616 143.584 218.616 139.144V124.024C218.616 119.584 216.376 117.184 212.336 117.184C208.296 117.184 206.056 119.584 206.056 124.024V139.144C206.056 143.584 208.296 145.984 212.336 145.984ZM212.336 143.704C209.896 143.704 208.536 142.304 208.536 139.304V123.864C208.536 120.864 209.896 119.424 212.336 119.424C214.776 119.424 216.136 120.864 216.136 123.864V139.304C216.136 142.304 214.776 143.704 212.336 143.704ZM222.392 145.584H224.672V121.704L232.632 145.584H235.272V117.584H232.952V139.224L225.672 117.584H222.392V145.584ZM239.306 145.584H250.506V143.304H241.786V132.104H248.946V129.864H241.786V119.824H250.506V117.584H239.306V145.584ZM257.286 145.584H259.766V119.824H264.926V117.584H252.166V119.824H257.286V145.584ZM271.857 145.584H274.337V119.824H279.497V117.584H266.737V119.824H271.857V145.584ZM282.313 145.584H293.513V143.304H284.793V132.104H291.953V129.864H284.793V119.824H293.513V117.584H282.313V145.584Z" fill="white"/>
<path fill-rule="evenodd" clip-rule="evenodd" d="M281.914 173.992C281.914 212.992 245.722 236.704 208.906 236.704C176.146 236.704 148.69 225.16 134.026 214.552L132.495 172H136.441C148.766 204.13 172.415 231.088 215.146 231.088C240.106 231.088 261.634 214.864 261.634 189.592C261.634 183.022 259.932 177.198 257 172H281.879C281.902 172.656 281.914 173.32 281.914 173.992ZM143.75 99C139.249 91.7827 136.834 83.218 136.834 72.592C136.834 36.088 167.098 13 212.962 13C241.354 13 261.634 20.8 273.802 27.352L275.05 63.544L271.93 64.48C260.386 37.336 238.546 17.992 202.978 17.992C177.706 17.992 156.178 32.656 156.178 59.176C156.178 78.4115 170.002 90.131 186.998 99H143.75ZM111.976 99V54.808C111.976 29.224 114.784 22.048 124.456 19.24V15.184H73.9121V19.24C83.2721 22.048 86.3921 29.224 86.3921 54.808V99H111.976ZM86.3921 172V193.96C86.3921 219.544 83.2721 226.72 73.9121 229.528V233.584H124.456V229.528C114.784 226.72 111.976 219.544 111.976 193.96V172H86.3921Z" fill="white"/>
</g>
<defs>
<clipPath id="clip0_7_10">
<rect width="306" height="252" fill="white"/>
</clipPath>
</defs>
</svg>
